<svg xmlns="http://www.w3.org/2000/svg" viewBox="0 0 500.56 153.61"><defs><style>.a{fill:#fff;}</style></defs><path class="a" d="M139.15,112.94c-1.29,1.82-2.43,3.45-3.59,5-5.83,8-11.88,15.87-19.11,22.69a47.42,47.42,0,0,1-26.51,12.53c-10.56,1.5-20.27-1-29.46-6.09A159,159,0,0,1,25.8,121.3,60.8,60.8,0,0,0,4.35,107.88c-1.27-.48-2.51-1-3.77-1.53-.15-.06-.29-.14-.58-.29.66-.49,1.23-1,1.84-1.36a51.54,51.54,0,0,1,22.57-8.31C36,94.9,46.82,97.46,57,103c8.81,4.8,17.88,9,27.68,11.4,3.54.85,7.23,1.11,10.86,1.64a4.75,4.75,0,0,1,1,.1c-1.64,1.18-3,2.19-4.34,3.09-3.83,2.49-7.83,4.77-12.39,5.44a34.22,34.22,0,0,1-8.58.07c-4.91-.55-9.77-1.47-14.66-2.23a.89.89,0,0,0-.63.24c1.81,1.54,3.58,3.13,5.44,4.62,6.11,4.89,12.82,8.69,20.52,10.43,9.7,2.2,18.4,0,26.21-6.13a39.17,39.17,0,0,0,6.94-7.55c3.1-4.1,6.49-7.92,11.12-10.39a14.61,14.61,0,0,1,11.68-1.31Z" transform="translate(0 -0.04)"/><path class="a" d="M36.68,40c1.57-2.19,3-4.23,4.5-6.25a159.46,159.46,0,0,1,17-20.14A47,47,0,0,1,84.3.59c10.79-1.72,20.74.66,30.18,5.87A159.5,159.5,0,0,1,149.14,32.3a61.89,61.89,0,0,0,21.34,13.37c1.25.49,2.49,1,3.92,1.57-.8.55-1.43,1-2.1,1.43a53.16,53.16,0,0,1-31.29,8,50.82,50.82,0,0,1-20.87-6.05c-8-4.22-16-8.27-24.64-11a61.43,61.43,0,0,0-15-3c.06-.16.07-.3.15-.35,4.75-3.44,9.72-6.55,15.65-7.33a36.23,36.23,0,0,1,8.83.18c4.55.54,9.06,1.42,13.58,2.14a8.42,8.42,0,0,0,1.23,0,5.7,5.7,0,0,0-.71-1.39c-7-6.7-14.88-12-24.38-14.59-11.71-3.14-21.9-.23-30.48,8.13C61.7,26,59.59,29.18,57.16,32c-2.93,3.43-6.23,6.42-10.56,8A14.4,14.4,0,0,1,36.68,40Z" transform="translate(0 -0.04)"/><path class="a" d="M201.56,58.57v51.18h-10V39.86h9.58c.32,0,.73.41,1,.74Q209.84,52,217.56,63.52q4.62,6.85,9.23,13.7c.17.26.37.5.68.91,1.06-1.55,2.07-3,3.06-4.48q11.1-16.49,22.19-33a1.71,1.71,0,0,1,1.65-.86c3,.05,5.92,0,9,0v69.88h-9.93V58.85l-.24-.06c-1.81,2.66-3.63,5.31-5.43,8Q238.88,79.85,230,92.94a2.14,2.14,0,0,1-1.74,1c-2,.27-3.11-.59-4.21-2.23-7.19-10.75-14.5-21.41-21.78-32.1C202.1,59.29,201.91,59.1,201.56,58.57Z" transform="translate(0 -0.04)"/><path class="a" d="M63.05,125.92c2.09.25,4.2.38,6.26.76,9.43,1.74,17.65-1.1,25.21-6.52.94-.67,1.89-1.35,2.79-2.07a2.28,2.28,0,0,0,.82-2.66A2,2,0,0,0,96,114.12c-6.83-.16-13.29-2-19.63-4.38a154.49,154.49,0,0,1-19.19-8.9c-2.24-1.2-4.63-2.13-6.92-3.24A2.67,2.67,0,0,1,49,96.49,69.49,69.49,0,0,0,28.66,70.1a.75.75,0,0,1-.33-.56c2.57,1,5.15,2.06,7.7,3.15,10.83,4.61,21.21,10,30.58,17.21,5.67,4.3,10.67,9.2,14.13,15.43.47.83.82,1.73,1.28,2.57.15.28.46.64.72.67a1,1,0,0,0,.8-.54c4.23-9.42,11.79-15.77,20-21.42,10.31-7.08,21.55-12.38,33.21-16.83.17-.07.36-.12.79-.26-1.79,1.56-3.41,2.9-4.94,4.33-10,9.37-16.39,20.9-20,34-1.35,4.81-2.14,9.77-3.1,14.68a29.05,29.05,0,0,0-.32,4.17,3.35,3.35,0,0,1-1.33,2.64c-4.29,3.46-8.94,6.09-14.47,7a30.67,30.67,0,0,1-15.41-1.71A49.46,49.46,0,0,1,63.05,125.92Z" transform="translate(0 -0.04)"/><path class="a" d="M375.06,65.84V39.94h9v69.82h-9V103.1a57.31,57.31,0,0,1-5.1,4.24c-9,6-24.45,5.26-32.9-5.65a28.08,28.08,0,0,1,2.39-36.92,23.49,23.49,0,0,1,16.36-6.67c5-.14,9.81.74,14.05,3.56A63.38,63.38,0,0,1,375.06,65.84Zm-18.78.85a15.28,15.28,0,0,0-11.53,5.74,18,18,0,0,0-3.89,10.35,19.5,19.5,0,0,0,3.35,13.15c5,7,15.14,8,21.94,4.39s9.22-9.72,8.81-17C374.39,73.1,367.5,66.69,356.28,66.69Z" transform="translate(0 -0.04)"/><path class="a" d="M105.07,66.1c.18,11.94-10,22.34-22.63,22.17A22.27,22.27,0,1,1,105.07,66.1Z" transform="translate(0 -0.04)"/><path class="a" d="M324,88.52H283.76A15.72,15.72,0,0,0,297,101.94c4.48.69,8.87.5,12.93-1.71a47.42,47.42,0,0,0,4.81-3.4l7.36,4.66a45.29,45.29,0,0,1-3.14,3.31,24.52,24.52,0,0,1-14.65,6.13c-6.42.56-12.62-.34-18.21-3.8-7.26-4.49-11.13-11.13-12-19.54a26.28,26.28,0,0,1,5.38-19.68c6.59-8.34,15.4-11.48,25.67-9.17,10.47,2.36,16.53,9.4,18.63,19.86A33.33,33.33,0,0,1,324,88.52Zm-9.38-7.92c-.87-7.38-5.61-13.79-14.7-13.91A15.49,15.49,0,0,0,283.81,80.6Z" transform="translate(0 -0.04)"/><path class="a" d="M419.33,59.3h9V66c1.1-1.2,2-2.27,3-3.21,9.09-8.55,26.93-6,31.37,9.7a21.18,21.18,0,0,1,.73,5.54c.07,10.06,0,20.12,0,30.19v1.49h-9.15V108.4c0-9,.06-18.05,0-27.07a24.92,24.92,0,0,0-1-6.7c-1.49-5-5.49-7.78-10.74-8-9.14-.31-14.12,6.81-14.17,14.54-.05,9.06,0,18.13,0,27.19v1.35h-9Q419.31,84.62,419.33,59.3Z" transform="translate(0 -0.04)"/><path class="a" d="M479.72,67.94h-7.86V59.3h7.81V48.76h9.14V59.24h11.67V67.9H488.9c0,.5-.07.88-.07,1.26,0,8,0,15.89.08,23.84a21.27,21.27,0,0,0,.36,3.56c.65,3.5,2.71,5.25,6.29,5.36,1.63,0,3.26,0,5,0v7.42c0,.22-.41.59-.67.63-4.37.59-8.7.62-12.79-1.33s-6-5.29-6.81-9.43a27.74,27.74,0,0,1-.51-5.22c0-8.19,0-16.37,0-24.56A10.81,10.81,0,0,1,479.72,67.94Z" transform="translate(0 -0.04)"/><path class="a" d="M406,109.76h-9V59.36h9Z" transform="translate(0 -0.04)"/><path class="a" d="M95.72,19.18c-9.28,1.36-16.56,6.08-22.66,12.88-3.52,3.92-7,7.85-10.67,11.66a29.09,29.09,0,0,1-9.32,6.62,8.49,8.49,0,0,1-5.58.79,6.32,6.32,0,0,1-4.41-3.78c2.89-1.94,5.79-3.7,8.48-5.74a84.56,84.56,0,0,0,14.71-15c4.45-5.6,10.31-8,17.23-8.53a44.73,44.73,0,0,1,11.55.74,2,2,0,0,1,.56.17S95.65,19,95.72,19.18Z" transform="translate(0 -0.04)"/><path class="a" d="M132,106.1c-8.65,4.3-15.24,11.09-21.43,18.34l-.28-.12c.18-1.43.29-2.87.57-4.28q1-5.08,2.17-10.15a3.51,3.51,0,0,1,1-1.66c3-2.73,6.14-5.07,10.13-6.13A6.19,6.19,0,0,1,132,106Z" transform="translate(0 -0.04)"/><path class="a" d="M256.21,125.51V142.1h-2.27v-12c-.4.52-.62.77-.8,1-1.4,2.13-2.78,4.28-4.18,6.41-.78,1.19-1.16,1.18-2,0-1.38-2.1-2.75-4.21-4.12-6.31l-.77-1.11v12h-2.3V125.55c2.12-.37,2.12-.37,3.26,1.39l4.93,7.65,4.9-7.59C254,125.28,254,125.27,256.21,125.51Z" transform="translate(0 -0.04)"/><path class="a" d="M381.78,144.48l1.61-1a4.9,4.9,0,0,0,5.78.89c1.63-.83,1.85-2.45,1.73-4.31a5.37,5.37,0,0,1-5,1.67,5.76,5.76,0,0,1-3.43-2,6.15,6.15,0,0,1,.25-8.2c2.13-2.28,5-2.36,8.12-.17,0-.46.07-.86.1-1.32H393v11.48a5.16,5.16,0,0,1-3.94,5.22C386.09,147.47,383,146.56,381.78,144.48Zm9.16-8.67a3.72,3.72,0,0,0-3.41-4h-.37a3.91,3.91,0,0,0-3.93,3.87v.08a4,4,0,0,0,3.87,4,3.77,3.77,0,0,0,3.84-3.72Z" transform="translate(0 -0.04)"/><path class="a" d="M281.74,131.49v-6h2V142.1h-2c0-.45-.05-.84-.09-1.42a5.31,5.31,0,0,1-5.42,1.57,7.13,7.13,0,0,1-3.3-2.17,6.75,6.75,0,0,1,.62-8.85A5.93,5.93,0,0,1,281.74,131.49Zm0,4.58a3.93,3.93,0,0,0-3.57-4.26h-.43a4,4,0,0,0-4,4.31c0,2.56,1.6,4.19,3.93,4.19a3.9,3.9,0,0,0,4.08-3.71,4,4,0,0,0,0-.49Z" transform="translate(0 -0.04)"/><path class="a" d="M406.75,45.1a5.19,5.19,0,0,1-10.37.51c0-.15,0-.3,0-.45a5.19,5.19,0,1,1,10.37-.51C406.75,44.8,406.76,45,406.75,45.1Z" transform="translate(0 -0.04)"/><path class="a" d="M270.13,137.1h-9.21c.59,3.26,4,4.17,7.11,2l1.57,1c-2,2.9-6.58,3.18-9.23.63-2.88-2.77-2.27-8.22,1.17-10.18a5.36,5.36,0,0,1,6,.14C269.75,132.17,270.36,134.39,270.13,137.1Zm-2.28-1.91c-.2-2.16-1.44-3.4-3.34-3.41a3.45,3.45,0,0,0-3.58,3.32v.09Z" transform="translate(0 -0.04)"/><path class="a" d="M379.51,137.1h-9.14c0,2.71,4,4.54,7.06,2l1.58,1c-1.85,2.9-6.53,3.2-9.19.66a6.67,6.67,0,0,1-1.26-7.42,5.8,5.8,0,0,1,5.71-3.56C377.68,129.92,380,133.1,379.51,137.1Zm-2.23-1.91a3.29,3.29,0,0,0-3.18-3.39c-2.06-.08-3.45,1.17-3.74,3.39Z" transform="translate(0 -0.04)"/><path class="a" d="M330.37,134.84c.09-2.38-1.11-3.46-3.46-3a7.43,7.43,0,0,0-1.38.38c-1.36.53-1.35.55-2.42-.58a7,7,0,0,1,7-1.52,3.36,3.36,0,0,1,2.26,3c.11,3,0,6,0,9h-1.89c0-.42-.05-.81-.08-1.4a5.51,5.51,0,0,1-4.22,1.73,3.87,3.87,0,0,1-3.88-3.08,3.4,3.4,0,0,1,2.75-4l.25,0A45.37,45.37,0,0,1,330.37,134.84Zm0,1.65a36,36,0,0,0-4.62.7,2.17,2.17,0,0,0-1.18,1.64,2.11,2.11,0,0,0,1.15,1.55c2.56,1.08,4.93-.83,4.56-3.89Z" transform="translate(0 -0.04)"/><path class="a" d="M450.68,142.1h-1.87a8.19,8.19,0,0,0-.09-1.41,5.58,5.58,0,0,1-4.2,1.71,3.91,3.91,0,0,1-3.89-3.07,3.47,3.47,0,0,1,2.88-4l.19,0a46.72,46.72,0,0,1,5-.48c.13-2.36-1.1-3.48-3.43-3.06a3.28,3.28,0,0,0-1.37.39c-1.09.77-1.8.33-2.45-.58a6.91,6.91,0,0,1,7-1.55,3.35,3.35,0,0,1,2.27,3C450.76,136,450.68,139,450.68,142.1Zm-2-5.65a36.06,36.06,0,0,0-4.73.74,2.09,2.09,0,0,0-1.09,1.69,2.23,2.23,0,0,0,1.34,1.54c2.61.88,4.71-.87,4.47-3.94Z" transform="translate(0 -0.04)"/><path class="a" d="M413.28,142.1h-1.87c0-.43-.05-.84-.09-1.43a5.52,5.52,0,0,1-4.4,1.73,3.81,3.81,0,0,1-3.7-3.14,3.33,3.33,0,0,1,2.72-3.83h.1a48.23,48.23,0,0,1,5.22-.61c.23-2.14-.95-3.36-3.13-3.08a7,7,0,0,0-1.62.42c-1.38.52-1.37.54-2.47-.51a6.71,6.71,0,0,1,7.34-1.4,3.29,3.29,0,0,1,1.87,2.76C413.28,136,413.28,139,413.28,142.1Zm-2-5.64a37.79,37.79,0,0,0-4.73.73,2.07,2.07,0,0,0-1.1,1.68,2.28,2.28,0,0,0,1.33,1.55c2.57.88,4.67-.86,4.5-3.94Z" transform="translate(0 -0.04)"/><path class="a" d="M349.39,142.1h-2.05V130h2c0,.43.06.84.09,1.29a12.36,12.36,0,0,1,1.93-1.27,4.44,4.44,0,0,1,5.78,2.46,4.28,4.28,0,0,1,.32,1.54c.19,2.65,0,5.33,0,8.08h-2.1v-5.66a13.13,13.13,0,0,0-.14-2.26,2.5,2.5,0,0,0-2.44-2.36,2.91,2.91,0,0,0-3.15,2,6.75,6.75,0,0,0-.27,2C349.37,137.93,349.39,140,349.39,142.1Z" transform="translate(0 -0.04)"/><path class="a" d="M312,142.1H309.9v-12h2c0,.38.06.77.09,1.25a1.33,1.33,0,0,0,.37-.2,4.16,4.16,0,0,1,4.72-1.1,4.33,4.33,0,0,1,2.94,4c.14,2.66,0,5.33,0,8.07h-2.1v-4.6a23.28,23.28,0,0,0-.15-3.34,2.45,2.45,0,0,0-2.44-2.35,2.9,2.9,0,0,0-3.1,2,5.9,5.9,0,0,0-.3,1.87C311.92,137.78,312,139.92,312,142.1Z" transform="translate(0 -0.04)"/><path class="a" d="M301,138.44l1.6.92a5.75,5.75,0,0,1-6.38,3,6.42,6.42,0,0,1-.3-12.38,5.83,5.83,0,0,1,6.71,2.8l-1.6.92c-2-2.31-4.6-2.48-6.39-.63a4.63,4.63,0,0,0,.11,6.2C296.4,140.88,298.83,140.6,301,138.44Z" transform="translate(0 -0.04)"/><path class="a" d="M428.62,130.1a1,1,0,0,1,.3-.11c2-.13,2-.13,2.68,1.74l2.24,6.3c.13.36.28.71.54,1.37,1-2.75,1.86-5.2,2.74-7.65.7-1.95.7-1.95,3-1.68-1.44,3.86-2.85,7.71-4.35,11.52-.13.32-.86.52-1.33.56s-1.19.33-1.5-.53C431.51,137.77,430.06,133.93,428.62,130.1Z" transform="translate(0 -0.04)"/><path class="a" d="M418.94,130h2.67v2.13h-2.47c0,2.37-.09,4.66,0,6.94.06,1,.58,1.17,2.35,1.23.44,1.83.19,2.12-1.65,1.94a2.85,2.85,0,0,1-2.79-2.5,46.75,46.75,0,0,1-.23-4.88v-2.6l-1.66-.16v-2l1.6-.12c0-.79.07-1.56.11-2.42h2Z" transform="translate(0 -0.04)"/><path class="a" d="M361.42,132.1l-1.66-.08v-2l1.61-.1c0-.8.07-1.58.11-2.43h2v2.45h2.66V132h-2.5c0,2.37-.09,4.63,0,6.87.06,1.11.56,1.27,2.4,1.33.4,1.86.17,2.13-1.67,1.94a2.84,2.84,0,0,1-2.76-2.4,49.09,49.09,0,0,1-.25-5C361.4,133.93,361.42,133.1,361.42,132.1Z" transform="translate(0 -0.04)"/><path class="a" d="M342,142.1V125.48h2.28V142.1Z" transform="translate(0 -0.04)"/><path class="a" d="M396.28,130h2c0,.55.09,1.08.14,1.8a4.52,4.52,0,0,1,3.76-2.05V132c-2.95.46-3.78,1.42-3.83,4.44v5.5a.28.28,0,0,1-.1.17h-2Z" transform="translate(0 -0.04)"/><path class="a" d="M287.11,130h2v12.1h-2Z" transform="translate(0 -0.04)"/><path class="a" d="M306.82,142.15h-2V130h2Z" transform="translate(0 -0.04)"/><path class="a" d="M426.59,142.1h-2V130h2Z" transform="translate(0 -0.04)"/><path class="a" d="M305.72,128.1c-.32-.46-.92-.94-.88-1.36s.68-.87,1.06-1.3c.41.4,1.08.75,1.16,1.2s-.48,1-.76,1.43Z" transform="translate(0 -0.04)"/><path class="a" d="M289.57,127c-.47.3-.92.78-1.42.84A1,1,0,0,1,287,127a1.22,1.22,0,0,1,0-.33,1.77,1.77,0,0,1,1.19-1.13c.42,0,.89.6,1.35.93Q289.57,126.72,289.57,127Z" transform="translate(0 -0.04)"/><path class="a" d="M427.1,126.92c-.46.32-.88.83-1.38.91a1,1,0,0,1-1.15-.67.94.94,0,0,1,0-.47,1.8,1.8,0,0,1,1.12-1.19c.41-.06.93.54,1.4.85C427.1,126.54,427.1,126.73,427.1,126.92Z" transform="translate(0 -0.04)"/></svg>