<svg xmlns="http://www.w3.org/2000/svg" viewBox="0 0 500.57 153.64"><defs><style>.a{fill:#5281c2;}.b{fill:#b6c856;}</style></defs><path class="a" d="M194.87,415.84c-1.29,1.82-2.43,3.45-3.59,5.05-5.83,8-11.88,15.87-19.11,22.69a47.4,47.4,0,0,1-26.51,12.53c-10.56,1.5-20.27-1-29.46-6.09A158.81,158.81,0,0,1,81.52,424.2a60.92,60.92,0,0,0-21.45-13.42c-1.27-.48-2.51-1-3.77-1.53-.15-.06-.29-.14-.58-.29.66-.49,1.23-.95,1.84-1.36a51.45,51.45,0,0,1,22.57-8.31c11.63-1.49,22.41,1.07,32.61,6.64,8.81,4.8,17.88,9,27.68,11.4,3.54.85,7.23,1.11,10.86,1.64.18,0,.37,0,.95.1-1.64,1.18-2.95,2.19-4.34,3.09-3.83,2.49-7.83,4.77-12.39,5.44a34.21,34.21,0,0,1-8.58.07c-4.91-.55-9.77-1.47-14.66-2.23-.15,0-.31,0-.63.24,1.81,1.54,3.58,3.13,5.44,4.62,6.11,4.89,12.82,8.69,20.52,10.43,9.7,2.2,18.4,0,26.21-6.13a39.42,39.42,0,0,0,6.94-7.55c3.1-4.1,6.49-7.92,11.12-10.39a14.6,14.6,0,0,1,11.68-1.31Z" transform="translate(-55.72 -302.9)"/><path class="a" d="M92.4,342.88c1.57-2.19,3-4.23,4.5-6.25a159.15,159.15,0,0,1,17-20.14,47,47,0,0,1,26.12-13c10.79-1.72,20.74.66,30.18,5.87a159.43,159.43,0,0,1,34.66,25.84,61.82,61.82,0,0,0,21.34,13.37c1.25.49,2.49,1,3.92,1.57-.8.55-1.43,1-2.1,1.43a53.16,53.16,0,0,1-31.29,8,50.86,50.86,0,0,1-20.87-6.05c-8-4.22-16-8.27-24.64-11a61.56,61.56,0,0,0-15-3c.06-.16.07-.3.15-.35,4.75-3.44,9.72-6.55,15.65-7.33a35.79,35.79,0,0,1,8.83.18c4.55.54,9.06,1.42,13.58,2.14a9.27,9.27,0,0,0,1.23,0,5.55,5.55,0,0,0-.71-1.39c-7-6.7-14.88-12-24.38-14.59-11.71-3.14-21.9-.23-30.48,8.13-2.67,2.6-4.78,5.77-7.21,8.62-2.93,3.43-6.23,6.42-10.56,8A14.42,14.42,0,0,1,92.4,342.88Z" transform="translate(-55.72 -302.9)"/><path class="b" d="M257.28,361.47v51.18h-10V342.76c3.21,0,6.4,0,9.58,0,.32,0,.73.41.95.74q7.76,11.45,15.47,22.92,4.62,6.85,9.23,13.7c.17.26.37.5.68.91,1.06-1.55,2.07-3,3.06-4.48q11.1-16.49,22.19-33a1.71,1.71,0,0,1,1.65-.86c3,.05,5.92,0,9,0v69.88h-9.93V361.75l-.24-.06c-1.81,2.66-3.63,5.31-5.43,8q-8.89,13.06-17.76,26.15a2.12,2.12,0,0,1-1.74,1c-2,.27-3.11-.59-4.21-2.23-7.19-10.75-14.5-21.41-21.78-32.1C257.82,362.19,257.63,362,257.28,361.47Z" transform="translate(-55.72 -302.9)"/><path class="b" d="M118.77,428.82c2.09.25,4.2.38,6.26.76,9.43,1.74,17.65-1.1,25.21-6.52.94-.67,1.89-1.35,2.79-2.07a2.28,2.28,0,0,0,.82-2.66c-.34-1-1.14-1.29-2.16-1.31-6.83-.16-13.29-2-19.63-4.38a154.49,154.49,0,0,1-19.19-8.9c-2.24-1.2-4.63-2.13-6.92-3.24a2.69,2.69,0,0,1-1.26-1.11A69.44,69.44,0,0,0,84.38,373a.79.79,0,0,1-.33-.56c2.57,1.05,5.15,2.06,7.7,3.15,10.83,4.61,21.21,10,30.58,17.21C128,397.1,133,402,136.46,408.23c.47.83.82,1.73,1.28,2.57.15.28.46.64.72.67a1.06,1.06,0,0,0,.8-.54c4.23-9.42,11.79-15.77,20-21.42,10.31-7.08,21.55-12.38,33.21-16.83.17-.07.36-.12.79-.26-1.79,1.56-3.41,2.9-4.94,4.33-10,9.37-16.39,20.9-20.05,34-1.35,4.81-2.14,9.77-3.1,14.68a28.94,28.94,0,0,0-.32,4.17,3.35,3.35,0,0,1-1.33,2.64c-4.29,3.46-8.94,6.09-14.47,7a30.66,30.66,0,0,1-15.41-1.71A49.25,49.25,0,0,1,118.77,428.82Z" transform="translate(-55.72 -302.9)"/><path class="b" d="M430.78,368.74v-25.9h9v69.82h-9V406a57.54,57.54,0,0,1-5.1,4.24c-9,6-24.45,5.26-32.9-5.65a28.08,28.08,0,0,1,2.39-36.92A23.45,23.45,0,0,1,411.53,361c5-.14,9.81.74,14.05,3.56A63.29,63.29,0,0,1,430.78,368.74Zm-18.78.85a15.25,15.25,0,0,0-11.53,5.74,18.07,18.07,0,0,0-3.89,10.35,19.5,19.5,0,0,0,3.35,13.15c5,7,15.14,8,21.94,4.39s9.22-9.72,8.81-17C430.11,376,423.22,369.59,412,369.59Z" transform="translate(-55.72 -302.9)"/><path class="b" d="M160.79,369c.18,11.94-10,22.34-22.63,22.17A22.27,22.27,0,1,1,160.79,369Z" transform="translate(-55.72 -302.9)"/><path class="b" d="M379.67,391.42H339.48a15.72,15.72,0,0,0,13.21,13.42c4.48.69,8.87.5,12.93-1.71a48.56,48.56,0,0,0,4.81-3.4l7.36,4.66c-1.09,1.16-2,2.32-3.14,3.31A24.51,24.51,0,0,1,360,413.83c-6.42.56-12.62-.34-18.21-3.8-7.26-4.49-11.13-11.13-12-19.54a26.25,26.25,0,0,1,5.38-19.68c6.59-8.34,15.4-11.48,25.67-9.17,10.47,2.36,16.53,9.4,18.63,19.86A33.19,33.19,0,0,1,379.67,391.42Zm-9.38-7.92c-.87-7.38-5.61-13.79-14.7-13.91a15.49,15.49,0,0,0-16.06,13.91Z" transform="translate(-55.72 -302.9)"/><path class="b" d="M475.05,362.2h9v6.73c1.1-1.2,2-2.27,3-3.21,9.09-8.55,26.93-6,31.37,9.7a21.12,21.12,0,0,1,.73,5.54c.07,10.06,0,20.12,0,30.19v1.49H510V411.3c0-9,.06-18.05,0-27.07a24.83,24.83,0,0,0-1-6.7c-1.49-5-5.49-7.78-10.74-8-9.14-.31-14.12,6.81-14.17,14.54-.05,9.06,0,18.13,0,27.19v1.35h-9C475.05,395.88,475.05,379.1,475.05,362.2Z" transform="translate(-55.72 -302.9)"/><path class="b" d="M535.44,370.84h-7.86V362.2h7.81V351.66h9.14v10.48H556.2v8.66H544.62c0,.5-.07.88-.07,1.26,0,7.95,0,15.89.08,23.84a21.27,21.27,0,0,0,.36,3.56c.65,3.5,2.71,5.25,6.29,5.36,1.63.05,3.26,0,5,0,0,2.49,0,5,0,7.42,0,.22-.41.59-.67.63-4.37.59-8.7.62-12.79-1.33s-6-5.29-6.81-9.43a27.74,27.74,0,0,1-.51-5.22c-.05-8.19,0-16.37,0-24.56C535.44,371.9,535.44,371.47,535.44,370.84Z" transform="translate(-55.72 -302.9)"/><path class="b" d="M461.72,412.66h-9v-50.4h9Z" transform="translate(-55.72 -302.9)"/><path class="a" d="M151.44,322.08c-9.28,1.36-16.56,6.08-22.66,12.88-3.52,3.92-7,7.85-10.67,11.66a29,29,0,0,1-9.32,6.62,8.52,8.52,0,0,1-5.58.79,6.31,6.31,0,0,1-4.41-3.78c2.89-1.94,5.79-3.7,8.48-5.74a84.39,84.39,0,0,0,14.71-15c4.45-5.6,10.31-8,17.23-8.53a44.73,44.73,0,0,1,11.55.74c.19,0,.37.11.56.17C151.36,321.87,151.37,321.93,151.44,322.08Z" transform="translate(-55.72 -302.9)"/><path class="a" d="M187.74,409c-8.65,4.3-15.24,11.09-21.43,18.34l-.28-.12c.18-1.43.29-2.87.57-4.28q1-5.09,2.17-10.15a3.46,3.46,0,0,1,1-1.66c2.95-2.73,6.14-5.07,10.13-6.13A6.19,6.19,0,0,1,187.74,409Z" transform="translate(-55.72 -302.9)"/><path class="a" d="M311.93,428.41V445h-2.27V433c-.4.52-.62.77-.8,1-1.4,2.13-2.78,4.28-4.18,6.41-.78,1.19-1.16,1.18-2,0-1.38-2.1-2.75-4.21-4.12-6.31l-.77-1.11v12h-2.3V428.45c2.12-.37,2.12-.37,3.26,1.39l4.93,7.65,4.9-7.59C309.72,428.18,309.72,428.17,311.93,428.41Z" transform="translate(-55.72 -302.9)"/><path class="a" d="M437.5,447.38l1.61-1a4.9,4.9,0,0,0,5.78.89c1.63-.83,1.85-2.45,1.73-4.31a5.37,5.37,0,0,1-5,1.67,5.73,5.73,0,0,1-3.43-2,6.15,6.15,0,0,1,.25-8.2c2.13-2.28,5-2.36,8.12-.17,0-.46.07-.86.1-1.32h2.08v2.62c0,2.95,0,5.91,0,8.86a5.17,5.17,0,0,1-3.94,5.22C441.81,450.37,438.73,449.46,437.5,447.38Zm9.16-8.67a3.71,3.71,0,0,0-3.78-4,3.9,3.9,0,0,0-3.93,3.95,4,4,0,0,0,3.87,4A3.78,3.78,0,0,0,446.66,438.71Z" transform="translate(-55.72 -302.9)"/><path class="a" d="M337.46,434.39v-6h2V445h-2c0-.45-.05-.84-.09-1.42a5.31,5.31,0,0,1-5.42,1.57,7.16,7.16,0,0,1-3.3-2.17,6.75,6.75,0,0,1,.62-8.85A5.93,5.93,0,0,1,337.46,434.39Zm0,4.58a3.93,3.93,0,0,0-4-4.27c-2.36,0-4,1.75-4,4.31s1.6,4.19,3.93,4.19A3.9,3.9,0,0,0,337.46,439Z" transform="translate(-55.72 -302.9)"/><path class="b" d="M462.47,348a5.19,5.19,0,1,1-10.37.06,5.19,5.19,0,1,1,10.37-.06Z" transform="translate(-55.72 -302.9)"/><path class="a" d="M325.85,440h-9.21c.59,3.26,4,4.17,7.11,2l1.57,1c-2,2.9-6.58,3.18-9.23.63-2.88-2.77-2.27-8.22,1.17-10.18a5.36,5.36,0,0,1,6,.14C325.47,435.07,326.08,437.29,325.85,440Zm-2.28-1.91c-.2-2.16-1.44-3.4-3.34-3.41a3.45,3.45,0,0,0-3.58,3.41Z" transform="translate(-55.72 -302.9)"/><path class="a" d="M435.23,440h-9.14c0,2.71,4,4.54,7.06,2l1.58,1c-1.85,2.9-6.53,3.2-9.19.66a6.66,6.66,0,0,1-1.26-7.42,5.8,5.8,0,0,1,5.71-3.56C433.4,432.82,435.71,436,435.23,440ZM433,438.09c-.14-2-1.34-3.32-3.18-3.39-2.06-.08-3.45,1.17-3.74,3.39Z" transform="translate(-55.72 -302.9)"/><path class="a" d="M386.09,437.74c.09-2.38-1.11-3.46-3.46-3a7.23,7.23,0,0,0-1.38.38c-1.36.53-1.35.55-2.42-.58a7,7,0,0,1,7-1.52,3.37,3.37,0,0,1,2.26,3c.11,3,0,6,0,9H386.2c0-.42-.05-.81-.08-1.4a5.49,5.49,0,0,1-4.22,1.73,3.88,3.88,0,0,1-3.88-3.08,3.41,3.41,0,0,1,3-4A44.76,44.76,0,0,1,386.09,437.74Zm0,1.65a36.61,36.61,0,0,0-4.62.7,2.18,2.18,0,0,0-1.18,1.64,2.11,2.11,0,0,0,1.15,1.55C384,444.36,386.37,442.45,386,439.39Z" transform="translate(-55.72 -302.9)"/><path class="a" d="M506.4,445h-1.87c0-.44,0-.83-.09-1.41a5.59,5.59,0,0,1-4.2,1.71,3.9,3.9,0,0,1-3.89-3.07,3.47,3.47,0,0,1,3.07-4,45.87,45.87,0,0,1,5-.48c.13-2.36-1.1-3.48-3.43-3.06a3.41,3.41,0,0,0-1.37.39c-1.09.77-1.8.33-2.45-.58a6.92,6.92,0,0,1,7-1.55,3.36,3.36,0,0,1,2.27,3C506.48,438.93,506.4,441.92,506.4,445Zm-2-5.65a36,36,0,0,0-4.73.74,2.08,2.08,0,0,0-1.09,1.69,2.23,2.23,0,0,0,1.34,1.54C502.53,444.2,504.63,442.45,504.39,439.38Z" transform="translate(-55.72 -302.9)"/><path class="a" d="M469,445h-1.87c0-.43-.05-.84-.09-1.43a5.52,5.52,0,0,1-4.4,1.73,3.82,3.82,0,0,1-3.7-3.14,3.32,3.32,0,0,1,2.82-3.84,46.81,46.81,0,0,1,5.22-.61c.23-2.14-.95-3.36-3.13-3.08a7,7,0,0,0-1.62.42c-1.38.52-1.37.54-2.47-.51a6.7,6.7,0,0,1,7.34-1.4,3.3,3.3,0,0,1,1.87,2.76C469,438.93,469,441.94,469,445Zm-2-5.64a37.76,37.76,0,0,0-4.73.73,2.08,2.08,0,0,0-1.1,1.68,2.28,2.28,0,0,0,1.33,1.55C465.07,444.2,467.17,442.46,467,439.38Z" transform="translate(-55.72 -302.9)"/><path class="a" d="M405.11,445h-2.05V432.92h2c0,.43.06.84.09,1.29a12.77,12.77,0,0,1,1.93-1.27,4.44,4.44,0,0,1,6.1,4c.19,2.65,0,5.33,0,8.08h-2.1c0-1.86,0-3.76,0-5.66a13.13,13.13,0,0,0-.14-2.26,2.5,2.5,0,0,0-2.44-2.36,2.91,2.91,0,0,0-3.15,2,7,7,0,0,0-.27,2C405.09,440.83,405.11,442.89,405.11,445Z" transform="translate(-55.72 -302.9)"/><path class="a" d="M367.67,445h-2.05V433h2c0,.38.06.77.09,1.25a1.39,1.39,0,0,0,.37-.2,4.16,4.16,0,0,1,4.72-1.1,4.33,4.33,0,0,1,2.94,4c.14,2.66,0,5.33,0,8.07h-2.1c0-1.52,0-3.06,0-4.6a24.82,24.82,0,0,0-.15-3.34,2.45,2.45,0,0,0-2.44-2.35,2.9,2.9,0,0,0-3.1,2,5.9,5.9,0,0,0-.3,1.87C367.64,440.68,367.67,442.82,367.67,445Z" transform="translate(-55.72 -302.9)"/><path class="a" d="M356.7,441.34l1.6.92a5.76,5.76,0,0,1-6.38,3,6.42,6.42,0,0,1-.3-12.38,5.83,5.83,0,0,1,6.71,2.8l-1.6.92c-2-2.31-4.6-2.48-6.39-.63a4.63,4.63,0,0,0,.11,6.2C352.12,443.78,354.55,443.5,356.7,441.34Z" transform="translate(-55.72 -302.9)"/><path class="a" d="M484.34,433a1,1,0,0,1,.3-.11c2-.13,2-.13,2.68,1.74l2.24,6.3c.13.36.28.71.54,1.37,1-2.75,1.86-5.2,2.74-7.65.7-1.95.7-1.95,3-1.68-1.44,3.86-2.85,7.71-4.35,11.52-.13.32-.86.52-1.33.56s-1.19.33-1.5-.53C487.23,440.67,485.78,436.83,484.34,433Z" transform="translate(-55.72 -302.9)"/><path class="a" d="M474.66,432.87h2.67V435h-2.47c0,2.37-.09,4.66,0,6.94.06,1,.58,1.17,2.35,1.23.44,1.83.19,2.12-1.65,1.94a2.85,2.85,0,0,1-2.79-2.5,46.62,46.62,0,0,1-.23-4.88c0-.83,0-1.67,0-2.6l-1.66-.16v-2l1.6-.12c0-.79.07-1.56.11-2.42h2Z" transform="translate(-55.72 -302.9)"/><path class="a" d="M417.14,435l-1.66-.08v-2l1.61-.1c0-.8.07-1.58.11-2.43h2v2.45h2.66v2.08h-2.5c0,2.37-.09,4.63,0,6.87.06,1.11.56,1.27,2.4,1.33.4,1.86.17,2.13-1.67,1.94a2.84,2.84,0,0,1-2.76-2.4,49,49,0,0,1-.25-5C417.12,436.83,417.14,436,417.14,435Z" transform="translate(-55.72 -302.9)"/><path class="a" d="M397.72,445V428.38H400V445Z" transform="translate(-55.72 -302.9)"/><path class="a" d="M452,432.9h2c0,.55.09,1.08.14,1.8a4.52,4.52,0,0,1,3.76-2.05v2.23c-2.95.46-3.78,1.42-3.83,4.44,0,1.83,0,3.67,0,5.5,0,0,0,.07-.1.17H452C452,441,452,437,452,432.9Z" transform="translate(-55.72 -302.9)"/><path class="a" d="M342.83,432.9h2V445h-2Z" transform="translate(-55.72 -302.9)"/><path class="a" d="M362.54,445.05h-2V432.94h2Z" transform="translate(-55.72 -302.9)"/><path class="a" d="M482.31,445h-2V432.93h2Z" transform="translate(-55.72 -302.9)"/><path class="a" d="M361.44,431c-.32-.46-.92-.94-.88-1.36s.68-.87,1.06-1.3c.41.4,1.08.75,1.16,1.2s-.48,1-.76,1.43Z" transform="translate(-55.72 -302.9)"/><path class="a" d="M345.29,429.89c-.47.3-.92.78-1.42.84a1,1,0,0,1-1.09-1.21,1.76,1.76,0,0,1,1.19-1.13c.42,0,.89.6,1.35.93Q345.29,429.62,345.29,429.89Z" transform="translate(-55.72 -302.9)"/><path class="a" d="M482.82,429.82c-.46.32-.88.83-1.38.91a.94.94,0,0,1-1.15-1.14,1.78,1.78,0,0,1,1.12-1.19c.41-.06.93.54,1.4.85C482.82,429.44,482.82,429.63,482.82,429.82Z" transform="translate(-55.72 -302.9)"/></svg>